<svg width="716" height="571" viewBox="0 0 716 571" fill="none" xmlns="http://www.w3.org/2000/svg">
<g clip-path="url(#clip0)">
<g clip-path="url(#clip1)">
<path opacity="0.29" d="M556.243 571C644.474 571 716 555.057 716 535.391C716 515.725 644.474 499.782 556.243 499.782C468.011 499.782 396.485 515.725 396.485 535.391C396.485 555.057 468.011 571 556.243 571Z" fill="#00131E"/>
<path d="M449.766 540.113H658.923C667.442 540.113 674.433 533.142 674.433 524.609V156.124C674.433 147.608 667.459 140.62 658.923 140.62H449.766C441.247 140.62 434.256 147.591 434.256 156.124V524.609C434.256 533.142 441.229 540.113 449.766 540.113Z" fill="#00131E"/>
<path d="M445.455 530.738H663.234C669.383 530.738 674.433 525.708 674.433 519.544V123.708C674.433 117.562 669.4 112.514 663.234 112.514H445.455C439.306 112.514 434.256 117.545 434.256 123.708V519.561C434.256 525.708 439.289 530.738 445.455 530.738Z" fill="#03283B"/>
<path d="M666.205 388.509V399.463V469.255C666.205 471.796 664.882 474.08 662.838 475.556C661.344 476.638 659.472 477.273 657.428 477.273H451.243C446.416 477.273 442.466 473.668 442.466 469.255V398.896V377.847V372.936V162.494C442.466 160.502 443.273 158.665 444.613 157.257C446.227 155.557 448.598 154.476 451.243 154.476H657.428C662.254 154.476 666.205 158.081 666.205 162.494V383.598V388.509Z" fill="#E7F2F1"/>
<path d="M436 478L672 478V193L436 193V478Z" fill="#FAFFFF"/>
<path d="M436.683 193.262L671.981 193.262V154.494L436.683 154.494V193.262Z" fill="#4267AE"/>
<path d="M467.853 182.084H589.221C594.374 182.084 598.583 177.877 598.583 172.726C598.583 167.576 594.374 163.369 589.221 163.369H467.853C462.7 163.369 458.492 167.576 458.492 172.726C458.492 177.877 462.7 182.084 467.853 182.084Z" fill="#FAFFFF"/>
<path d="M513.491 513.672H596.195C601.863 513.672 606.518 509.036 606.518 503.353C606.518 497.687 601.88 493.035 596.195 493.035H513.491C507.823 493.035 503.168 497.67 503.168 503.353C503.185 509.036 507.823 513.672 513.491 513.672Z" fill="#406D83"/>
<path d="M515.415 135.315H593.258C595.182 135.315 596.745 133.752 596.745 131.829C596.745 129.906 595.182 128.344 593.258 128.344H515.415C513.491 128.344 511.928 129.906 511.928 131.829C511.928 133.752 513.491 135.315 515.415 135.315Z" fill="#406D83"/>
<path d="M654.44 135.315C656.366 135.315 657.927 133.754 657.927 131.829C657.927 129.904 656.366 128.344 654.44 128.344C652.514 128.344 650.953 129.904 650.953 131.829C650.953 133.754 652.514 135.315 654.44 135.315Z" fill="#406D83"/>
<path d="M642.004 135.315C643.93 135.315 645.491 133.754 645.491 131.829C645.491 129.904 643.93 128.344 642.004 128.344C640.079 128.344 638.518 129.904 638.518 131.829C638.518 133.754 640.079 135.315 642.004 135.315Z" fill="#406D83"/>
<path d="M502.274 186.891C502.377 186.754 502.463 186.616 502.549 186.496C502.377 186.736 502.223 186.977 502.051 187.217C502.119 187.097 502.205 186.994 502.274 186.891Z" fill="#7A2B03"/>
<path d="M418.557 350.926C418.334 351.166 418.111 351.406 417.887 351.629C417.887 351.526 417.87 351.406 417.87 351.303C418.093 351.183 418.334 351.063 418.557 350.926Z" fill="#224B5B"/>
<path opacity="0.28" d="M340.938 181.792V238.33C340.938 243.36 345.008 247.43 350.041 247.43H463.027L492.107 253.301L477.215 229.711V181.792C477.215 176.761 473.144 172.692 468.111 172.692H350.041C345.008 172.692 340.938 176.761 340.938 181.792Z" fill="#03283B"/>
<g clip-path="url(#clip2)">
<path d="M340.938 175.628V232.166C340.938 237.197 345.008 241.266 350.041 241.266H463.027L492.107 247.12L477.215 223.53V175.628C477.215 170.597 473.144 166.528 468.111 166.528H350.041C345.008 166.528 340.938 170.597 340.938 175.628Z" fill="#FDB661"/>
<path d="M357.976 185.277H456.379C457.839 185.277 459.025 184.092 459.025 182.633V181.5C459.025 180.04 457.839 178.856 456.379 178.856H357.976C356.516 178.856 355.331 180.04 355.331 181.5V182.633C355.331 184.092 356.516 185.277 357.976 185.277Z" fill="#F28248"/>
<path d="M357.976 197.519H456.379C457.839 197.519 459.025 196.334 459.025 194.875V193.741C459.025 192.282 457.839 191.097 456.379 191.097H357.976C356.516 191.097 355.331 192.282 355.331 193.741V194.875C355.331 196.334 356.516 197.519 357.976 197.519Z" fill="#F28248"/>
<path d="M357.976 211.271H456.379C457.839 211.271 459.025 210.087 459.025 208.627V207.494C459.025 206.035 457.839 204.85 456.379 204.85H357.976C356.516 204.85 355.331 206.035 355.331 207.494V208.627C355.331 210.07 356.516 211.271 357.976 211.271Z" fill="#F28248"/>
<path d="M410.88 225.007H456.38C457.84 225.007 459.025 223.822 459.025 222.363V221.23C459.025 219.77 457.84 218.585 456.38 218.585H410.88C409.42 218.585 408.235 219.77 408.235 221.23V222.363C408.217 223.805 409.42 225.007 410.88 225.007Z" fill="#F28248"/>
</g>
</g>
<g clip-path="url(#clip3)">
<path opacity="0.29" d="M159.757 475.486C247.989 475.486 319.514 459.543 319.514 439.877C319.514 420.211 247.989 404.268 159.757 404.268C71.5258 404.268 0 420.211 0 439.877C0 459.543 71.5258 475.486 159.757 475.486Z" fill="#00131E"/>
<path d="M265.821 444.598H56.665C48.1456 444.598 41.1548 437.628 41.1548 429.095V60.6097C41.1548 52.0938 48.1284 45.106 56.665 45.106H265.821C274.341 45.106 281.332 52.0766 281.332 60.6097V429.095C281.332 437.628 274.341 444.598 265.821 444.598Z" fill="#00131E"/>
<path d="M270.133 435.224H52.3538C46.2046 435.224 41.1548 430.193 41.1548 424.03V28.1943C41.1548 22.0477 46.1875 17 52.3538 17H270.133C276.282 17 281.332 22.0306 281.332 28.1943V424.047C281.332 430.193 276.282 435.224 270.133 435.224Z" fill="#03283B"/>
<path d="M49.3824 292.994V303.948V373.741C49.3824 376.282 50.705 378.566 52.749 380.042C54.2433 381.124 56.1155 381.759 58.1595 381.759H264.344C269.171 381.759 273.122 378.154 273.122 373.741V303.382V282.332V277.422V66.9794C273.122 64.9878 272.314 63.1507 270.974 61.7428C269.36 60.0431 266.99 58.9614 264.344 58.9614H58.1423C53.3158 58.9614 49.3652 62.567 49.3652 66.9794V288.084V292.994H49.3824Z" fill="#E7F2F1"/>
<path d="M279.288 102.812H43.9888V382.738H279.288V102.812Z" fill="#FAFFFF"/>
<path d="M278.91 58.9614H43.6108V97.7294H278.91V58.9614Z" fill="#4267AE"/>
<path d="M194.282 86.5694H72.9309C67.778 86.5694 63.5698 82.3629 63.5698 77.2122C63.5698 72.0614 67.778 67.855 72.9309 67.855H194.299C199.452 67.855 203.66 72.0614 203.66 77.2122C203.66 82.3629 199.435 86.5694 194.282 86.5694Z" fill="#FAFFFF"/>
<path d="M202.08 418.158H119.376C113.708 418.158 109.053 413.522 109.053 407.839C109.053 402.173 113.69 397.521 119.376 397.521H202.08C207.748 397.521 212.403 402.156 212.403 407.839C212.403 413.522 207.765 418.158 202.08 418.158Z" fill="#406D83"/>
<path d="M200.173 39.8005H122.313C120.389 39.8005 118.826 38.2381 118.826 36.3152C118.826 34.3922 120.389 32.8298 122.313 32.8298H200.156C202.08 32.8298 203.643 34.3922 203.643 36.3152C203.66 38.2381 202.097 39.8005 200.173 39.8005Z" fill="#406D83"/>
<path d="M245.278 36.3152C245.278 38.2381 243.715 39.8005 241.791 39.8005C239.868 39.8005 238.305 38.2381 238.305 36.3152C238.305 34.3922 239.868 32.8298 241.791 32.8298C243.715 32.8298 245.278 34.3922 245.278 36.3152Z" fill="#406D83"/>
<path d="M254.227 39.8005C256.153 39.8005 257.714 38.2401 257.714 36.3152C257.714 34.3903 256.153 32.8298 254.227 32.8298C252.301 32.8298 250.74 34.3903 250.74 36.3152C250.74 38.2401 252.301 39.8005 254.227 39.8005Z" fill="#406D83"/>
<path d="M213.313 91.3768C213.21 91.2395 213.124 91.1021 213.038 90.9819C213.21 91.2223 213.364 91.4627 213.536 91.703C213.45 91.5828 213.382 91.4798 213.313 91.3768Z" fill="#7A2B03"/>
<path opacity="0.28" d="M374.651 86.2776V142.816C374.651 147.846 370.58 151.915 365.547 151.915H252.561L223.481 157.787L238.373 134.197V86.2776C238.373 81.2471 242.444 77.178 247.477 77.178H365.547C370.563 77.178 374.651 81.2471 374.651 86.2776Z" fill="#03283B"/>
<g clip-path="url(#clip4)">
<path d="M374.651 80.1138V136.652C374.651 141.682 370.58 145.752 365.547 145.752H252.561L223.481 151.606L238.373 128.016V80.1138C238.373 75.0833 242.444 71.0142 247.477 71.0142H365.547C370.563 71.0142 374.651 75.0833 374.651 80.1138Z" fill="#00DED1"/>
<path d="M357.611 89.7628H259.208C257.748 89.7628 256.562 88.5782 256.562 87.1188V85.9856C256.562 84.5262 257.748 83.3416 259.208 83.3416H357.611C359.071 83.3416 360.256 84.5262 360.256 85.9856V87.1188C360.256 88.5782 359.071 89.7628 357.611 89.7628Z" fill="#009C8E"/>
<path d="M357.611 102.005H259.208C257.748 102.005 256.562 100.82 256.562 99.3605V98.2273C256.562 96.7679 257.748 95.5833 259.208 95.5833H357.611C359.071 95.5833 360.256 96.7679 360.256 98.2273V99.3605C360.256 100.82 359.071 102.005 357.611 102.005Z" fill="#009C8E"/>
<path d="M357.611 115.757H259.208C257.748 115.757 256.562 114.572 256.562 113.113V111.98C256.562 110.52 257.748 109.336 259.208 109.336H357.611C359.071 109.336 360.256 110.52 360.256 111.98V113.113C360.256 114.555 359.071 115.757 357.611 115.757Z" fill="#009C8E"/>
<path d="M304.708 129.493H259.208C257.748 129.493 256.562 128.308 256.562 126.849V125.715C256.562 124.256 257.748 123.071 259.208 123.071H304.708C306.168 123.071 307.353 124.256 307.353 125.715V126.849C307.353 128.291 306.168 129.493 304.708 129.493Z" fill="#009C8E"/>
</g>
</g>
</g>
<path d="M600.816 296.75L516.226 296.508C512.461 296.497 509.376 293.517 509.372 289.886C509.367 286.255 512.444 283.293 516.21 283.304L600.799 283.546C604.565 283.557 607.649 286.537 607.654 290.168C607.658 293.799 604.581 296.761 600.816 296.75Z" fill="#383838"/>
<path d="M621.351 272.812C621.362 281.236 614.187 288.108 605.408 288.083L512.676 287.819C503.898 287.794 496.705 280.881 496.695 272.457L496.67 252.083C496.651 236.731 509.724 224.21 525.721 224.255L592.204 224.444C608.202 224.49 621.306 237.087 621.326 252.438L621.351 272.812Z" fill="#39C9FE"/>
<path d="M511.892 291.09L605.795 291.358C614.223 291.382 621.127 298.015 621.137 306.098L621.152 317.914C621.194 350.762 593.241 407.275 558.99 407.178C524.739 407.081 496.643 350.408 496.601 317.56L496.586 305.744C496.577 297.66 503.464 291.066 511.892 291.09Z" fill="#39C9FE"/>
<path d="M592.449 271.67L525.81 271.719C518.468 271.724 512.465 265.977 512.404 258.883C512.341 251.789 518.242 246.033 525.584 246.028L592.222 245.98C599.564 245.974 605.567 251.722 605.629 258.816C605.692 265.91 599.79 271.666 592.449 271.67Z" fill="#383838"/>
<path d="M538.789 259.028C538.828 262.047 536.322 264.499 533.191 264.505C530.061 264.51 527.492 262.066 527.454 259.046C527.416 256.027 529.921 253.575 533.052 253.569C536.182 253.565 538.751 256.009 538.789 259.028Z" fill="white"/>
<path d="M589.405 258.704C589.443 261.723 586.937 264.175 583.806 264.18C580.676 264.186 578.108 261.742 578.069 258.722C578.031 255.703 580.537 253.251 583.668 253.245C586.798 253.241 589.366 255.685 589.405 258.704Z" fill="white"/>
<path d="M505.293 211.731C505.295 213.401 503.884 214.753 502.142 214.748C500.4 214.743 498.985 213.384 498.983 211.713C498.981 210.043 500.392 208.691 502.134 208.696C503.876 208.702 505.29 210.06 505.293 211.731Z" fill="url(#paint0_linear)"/>
<path d="M502.142 236.678C502.142 236.678 509.675 237.624 513.782 228.206L511.775 224.243C511.092 222.893 509.394 222.335 507.998 223.001L503.677 225.063C502.727 225.516 502.129 226.445 502.131 227.463L502.142 236.678Z" fill="#383838"/>
<path d="M502.761 213.11C502.678 212.925 502.391 213.008 502.43 213.205L505.033 226.476C505.093 226.778 505.305 227.031 505.6 227.151C505.895 227.271 506.231 227.241 506.497 227.072L507.296 226.561C507.96 226.137 508.212 225.317 507.897 224.61L502.761 213.11Z" fill="url(#paint1_linear)"/>
<path d="M612.786 211.813C612.788 213.484 614.202 214.843 615.945 214.847C617.687 214.853 619.099 213.502 619.096 211.83C619.094 210.16 617.68 208.8 615.937 208.796C614.195 208.792 612.784 210.142 612.786 211.813Z" fill="url(#paint2_linear)"/>
<path d="M615.918 236.799C615.918 236.799 608.389 237.703 604.259 228.261L606.256 224.309C606.936 222.964 608.633 222.415 610.029 223.089L614.354 225.174C615.305 225.632 615.905 226.564 615.907 227.583L615.918 236.799Z" fill="#383838"/>
<path d="M615.619 213.315L613.057 226.516C612.996 226.83 612.774 227.094 612.468 227.217C612.161 227.341 611.809 227.307 611.531 227.129L610.782 226.647C610.116 226.219 609.86 225.397 610.175 224.692L615.287 213.217C615.368 213.033 615.657 213.118 615.619 213.315Z" fill="url(#paint3_linear)"/>
<path d="M241.146 245.26C241.146 245.26 282.716 294.731 292.358 306.373C301.995 318.016 343.755 354.202 345.426 355.557C347.096 356.911 374.731 351.069 374.452 354.447C374.173 357.826 360.154 356.738 360.553 360.582C360.951 364.431 388.556 384.977 386.376 386.319C382.295 388.838 368.985 374.363 367.31 375.879C365.639 377.398 382.654 389.769 380.833 393.266C379.007 396.764 365.852 380.125 364.013 380.633C362.174 381.141 374.217 397.847 370.145 398.673C367.934 399.122 359.808 383.571 357.943 385.354C356.073 387.132 360.371 399.93 357.77 400.21C355.169 400.489 355.67 389.033 350.707 383.808C345.745 378.584 344.956 372.382 334.548 366.26C324.144 360.138 278.48 339.841 262.192 321.505C245.905 303.168 215.943 266.644 215.943 266.644L241.146 245.26Z" fill="#F7A491"/>
<path d="M112.823 228.496C112.823 228.496 96.2734 190.614 93.6211 184.321C93.6211 184.321 116.737 164.488 130.535 166.035C130.535 166.035 148.415 193.091 158.955 194.064C169.494 195.042 206.572 196.561 213.073 200.286C219.575 204.012 247.151 244.024 247.151 244.024C247.151 244.024 222.371 267.939 212.398 267.891C212.398 267.891 205.623 251.741 203.304 254.683C200.989 257.626 203.646 337.309 199.017 342.088C194.736 346.511 125.23 351.983 115.753 343.574C115.753 343.574 115.053 340.171 109.699 263.72C108.566 247.626 112.823 228.496 112.823 228.496Z" fill="#F7CC7F"/>
<path d="M126.829 169.171C126.829 169.171 99.8313 117.531 93.4255 105.494C87.0157 93.4564 71.5838 46.7165 71.0477 44.8829C70.5075 43.0494 86.0684 23.4428 83.0408 22.3796C80.0133 21.3165 75.6272 32.8031 72.4506 31.0235C69.2698 29.2439 61.9893 -0.366337 59.9938 0.843186C56.2648 3.10815 63.7268 19.1247 61.7797 19.8681C59.8285 20.6154 55.5956 2.46872 51.8747 2.58428C48.1578 2.69599 57.5508 19.4097 56.414 20.6693C55.2731 21.9289 45.3964 6.06648 43.1388 8.97087C41.9133 10.5463 52.2738 22.8727 50.0243 23.6739C47.7748 24.4751 38.3335 16.2165 37.1039 18.1617C35.8703 20.1108 45.9728 24.0707 48.6093 29.9757C51.2458 35.8808 56.3091 38.8623 57.6516 49.409C58.994 59.9557 59.1996 103.737 68.8707 123.571C78.5419 143.405 98.7549 180.954 98.7549 180.954L126.829 169.171Z" fill="#F7A491"/>
<path d="M145.42 106.451C164.552 84.7387 198.208 80.7284 214.489 106.162C218.149 111.88 221.984 121.391 222.778 128.054C224.934 146.07 217.851 162.642 220.558 180.491C215.035 181.028 208.633 181.236 201.431 180.828L200.239 168.935L195.943 180.406C175.385 178.413 149.076 171.322 118.45 153.241C125.215 134.352 135.213 118.036 145.42 106.451Z" fill="#184655"/>
<path d="M178.708 162.377C178.708 162.377 174.714 182.129 175.509 189.917C176.309 197.71 172.464 222.815 155.205 222.896C137.945 222.977 151.927 190.975 153.556 183.339C155.18 175.703 155.567 152.073 155.567 152.073L178.708 162.377Z" fill="#F7A491"/>
<path d="M188.86 105.63C188.86 105.63 199.633 108.99 202.245 119.716C204.858 130.441 200.01 157.949 177.689 164.27C155.368 170.592 146.86 148.623 152.2 131.633C157.534 114.633 165.928 94.8759 188.86 105.63Z" fill="#F7A491"/>
<path d="M195.347 141.865C192.565 145.647 192.347 150.141 194.85 151.897C197.358 153.653 201.645 152.011 204.426 148.224C207.207 144.442 207.426 139.947 204.923 138.191C202.414 136.44 198.128 138.082 195.347 141.865Z" fill="#F7A491"/>
<path d="M160.817 144.774L176.894 150.882C176.894 150.882 174.093 156.577 166.941 154.085C158.224 151.053 160.817 144.774 160.817 144.774Z" fill="white"/>
<defs>
<linearGradient id="paint0_linear" x1="498.986" y1="211.856" x2="505.286" y2="211.537" gradientUnits="userSpaceOnUse">
<stop stop-color="#4F52FF"/>
<stop offset="1" stop-color="#4042E2"/>
</linearGradient>
<linearGradient id="paint1_linear" x1="502.78" y1="220.181" x2="507.766" y2="219.929" gradientUnits="userSpaceOnUse">
<stop stop-color="#4F52FF"/>
<stop offset="1" stop-color="#4042E2"/>
</linearGradient>
<linearGradient id="paint2_linear" x1="612.79" y1="211.956" x2="619.09" y2="211.637" gradientUnits="userSpaceOnUse">
<stop stop-color="#4F52FF"/>
<stop offset="1" stop-color="#4042E2"/>
</linearGradient>
<linearGradient id="paint3_linear" x1="609.789" y1="220.373" x2="615.965" y2="220.061" gradientUnits="userSpaceOnUse">
<stop stop-color="#4F52FF"/>
<stop offset="1" stop-color="#4042E2"/>
</linearGradient>
<clipPath id="clip0">
<rect width="716" height="554" fill="white" transform="translate(0 17)"/>
</clipPath>
<clipPath id="clip1">
<rect width="375.063" height="458.486" fill="white" transform="translate(340.938 112.514)"/>
</clipPath>
<clipPath id="clip2">
<rect width="151.169" height="80.5921" fill="white" transform="translate(340.938 166.528)"/>
</clipPath>
<clipPath id="clip3">
<rect width="374.65" height="458.486" fill="white" transform="translate(0 17)"/>
</clipPath>
<clipPath id="clip4">
<rect width="151.169" height="80.5921" fill="white" transform="translate(223.481 71.0142)"/>
</clipPath>
</defs>
</svg>
